<svg id="el7bma1upmn1" xmlns="http://www.w3.org/2000/svg" xmlns:xlink="http://www.w3.org/1999/xlink" viewBox="0 0 1585 1199.410000" shape-rendering="geometricPrecision" text-rendering="geometricPrecision"><style><![CDATA[#el7bma1upmn19_to {animation: el7bma1upmn19_to__to 14000ms linear infinite normal forwards}@keyframes el7bma1upmn19_to__to { 0% {transform: translate(0px,0px)} 22.285714% {transform: translate(0px,0px)} 23.214286% {transform: translate(10.994233px,-0.814481px)} 23.928571% {transform: translate(16.491350px,-2.721722px)} 24.857143% {transform: translate(27.092621px,-6.950550px)} 26% {transform: translate(34.951581px,-12.991732px)} 27% {transform: translate(44.637686px,-23.074655px)} 28.214286% {transform: translate(50.323791px,-33.157579px)} 29.214286% {transform: translate(54.849356px,-48.023139px)} 30.071429% {transform: translate(55.214091px,-53.777550px)} 30.928571% {transform: translate(53.928377px,-65.920407px)} 31.500000% {transform: translate(52.214091px,-72.777550px)} 32.142857% {transform: translate(47.214091px,-83.777550px)} 33.571429% {transform: translate(40.607180px,-92.274622px)} 34.214286% {transform: translate(37.121651px,-95.472280px)} 35.142857% {transform: translate(31.121651px,-100.472280px)} 36.142857% {transform: translate(20.121651px,-106.472280px)} 36.928571% {transform: translate(10.121651px,-109.472280px)} 37.642857% {transform: translate(-1.500000px,-110.472280px)} 41.285714% {transform: translate(-1.500000px,-110.472280px)} 42% {transform: translate(10.121651px,-109.472280px)} 42.785714% {transform: translate(20.121651px,-106.472280px)} 43.785714% {transform: translate(31.121651px,-100.472280px)} 44.714286% {transform: translate(37.121651px,-95.472280px)} 45.357143% {transform: translate(40.607180px,-92.274622px)} 46.785714% {transform: translate(47.214091px,-83.777550px)} 47.428571% {transform: translate(52.214091px,-72.777550px)} 48% {transform: translate(53.928377px,-65.920407px)} 48.857143% {transform: translate(55.214091px,-53.777550px)} 49.714286% {transform: translate(54.849356px,-48.023139px)} 50.714286% {transform: translate(50.323791px,-33.157579px)} 51.928571% {transform: translate(44.637686px,-23.074655px)} 52.928571% {transform: translate(34.951581px,-12.991732px)} 54.071429% {transform: translate(27.092621px,-6.950550px)} 55% {transform: translate(16.491350px,-2.721722px)} 55.714286% {transform: translate(10.994233px,-0.814481px)} 56.642857% {transform: translate(0px,0px)} 64.928571% {transform: translate(0px,0px)} 65.857143% {transform: translate(10.994233px,-0.814481px)} 66.571429% {transform: translate(16.491350px,-2.721722px)} 67.500000% {transform: translate(27.092621px,-6.950550px)} 68.642857% {transform: translate(34.951581px,-12.991732px)} 69.642857% {transform: translate(44.637686px,-23.074655px)} 70.857143% {transform: translate(50.323791px,-33.157579px)} 71.857143% {transform: translate(54.849356px,-48.023139px)} 72.714286% {transform: translate(55.214091px,-53.777550px)} 73.571429% {transform: translate(53.928377px,-65.920407px)} 74.142857% {transform: translate(52.214091px,-72.777550px)} 74.785714% {transform: translate(47.214091px,-83.777550px)} 76.214286% {transform: translate(40.607180px,-92.274622px)} 76.857143% {transform: translate(37.121651px,-95.472280px)} 77.785714% {transform: translate(31.121651px,-100.472280px)} 78.785714% {transform: translate(20.121651px,-106.472280px)} 79.571429% {transform: translate(10.121651px,-109.472280px)} 80.285714% {transform: translate(-1.500000px,-110.472280px)} 83.928571% {transform: translate(-1.500000px,-110.472280px)} 84.642857% {transform: translate(10.121651px,-109.472280px)} 85.428571% {transform: translate(20.121651px,-106.472280px)} 86.428571% {transform: translate(31.121651px,-100.472280px)} 87.357143% {transform: translate(37.121651px,-95.472280px)} 88% {transform: translate(40.607180px,-92.274622px)} 89.428571% {transform: translate(47.214091px,-83.777550px)} 90.071429% {transform: translate(52.214091px,-72.777550px)} 90.642857% {transform: translate(53.928377px,-65.920407px)} 91.500000% {transform: translate(55.214091px,-53.777550px)} 92.357143% {transform: translate(54.849356px,-48.023139px)} 93.357143% {transform: translate(50.323791px,-33.157579px)} 94.571429% {transform: translate(44.637686px,-23.074655px)} 95.571429% {transform: translate(34.951581px,-12.991732px)} 96.714286% {transform: translate(27.092621px,-6.950550px)} 97.642857% {transform: translate(16.491350px,-2.721722px)} 98.357143% {transform: translate(10.994233px,-0.814481px)} 99.285714% {transform: translate(0px,0px)} 100% {transform: translate(0px,0px)} }#el7bma1upmn20_to {animation: el7bma1upmn20_to__to 14000ms linear infinite normal forwards}@keyframes el7bma1upmn20_to__to { 0% {transform: translate(0px,0px)} 36.428571% {transform: translate(0px,0px)} 37.142857% {transform: translate(1.302909px,-16.116378px)} 38.571429% {transform: translate(7.801096px,-28.700002px)} 39.214286% {transform: translate(11.349674px,-35.065183px)} 40.714286% {transform: translate(19.629689px,-43.250606px)} 41% {transform: translate(21.914119px,-45.635195px)} 42.857143% {transform: translate(36.762908px,-53.635024px)} 43.642857% {transform: translate(45.968838px,-55.912849px)} 45% {transform: translate(61.869990px,-57.120002px)} 45.642857% {transform: translate(70.316094px,-55.483002px)} 47.142857% {transform: translate(86.690339px,-48.330002px)} 49.285714% {transform: translate(99.159993px,-37.130008px)} 51.428571% {transform: translate(108.482907px,-20.620304px)} 53.571429% {transform: translate(111.482907px,0.009997px)} 55.714286% {transform: translate(107.237323px,18.719396px)} 57.142857% {transform: translate(97.159993px,34.179397px)} 57.285714% {transform: translate(95.698214px,36.377497px)} 58.571429% {transform: translate(82.542201px,46.160400px)} 60.714286% {transform: translate(68.805447px,52.059998px)} 62.142857% {transform: translate(58.899388px,53.059998px)} 63.571429% {transform: translate(56.392908px,53.059998px)} 65.714286% {transform: translate(56.392908px,53.059998px)} 67.142857% {transform: translate(58.899388px,53.059998px)} 68.571429% {transform: translate(68.805447px,52.059998px)} 70.714286% {transform: translate(82.542201px,46.160400px)} 72% {transform: translate(95.698214px,36.377497px)} 72.142857% {transform: translate(97.159993px,34.179397px)} 73.571429% {transform: translate(107.237323px,18.719396px)} 75.714286% {transform: translate(111.482907px,0.009997px)} 77.857143% {transform: translate(108.482907px,-20.620304px)} 80% {transform: translate(99.159993px,-37.130008px)} 82.142857% {transform: translate(86.690339px,-48.330002px)} 83.642857% {transform: translate(70.316094px,-55.483002px)} 84.285714% {transform: translate(61.869990px,-57.120002px)} 85.642857% {transform: translate(45.968838px,-55.912849px)} 86.428571% {transform: translate(36.762908px,-53.635024px)} 88.285714% {transform: translate(21.914119px,-45.635195px)} 88.571429% {transform: translate(19.629689px,-43.250606px)} 90.071429% {transform: translate(11.349674px,-35.065183px)} 90.714286% {transform: translate(7.801096px,-28.700002px)} 92.142857% {transform: translate(1.302909px,-16.116378px)} 92.857143% {transform: translate(0px,0px)} 100% {transform: translate(0px,0px)} }#el7bma1upmn28_to {animation: el7bma1upmn28_to__to 14000ms linear infinite normal forwards}@keyframes el7bma1upmn28_to__to { 0% {transform: translate(-0px,-0.029399px)} 2.857143% {transform: translate(-0px,-0.029399px)} 4.214286% {transform: translate(-12.369399px,0.970601px)} 5.571429% {transform: translate(-22.369399px,3.970601px)} 7.214286% {transform: translate(-35.509126px,12.138787px)} 8.714286% {transform: translate(-45.512631px,21.739998px)} 9.714286% {transform: translate(-52.617792px,35.140601px)} 10.214286% {transform: translate(-56.439399px,46.570299px)} 11.285714% {transform: translate(-56.367971px,58.157961px)} 12.214286% {transform: translate(-54.439399px,68.200601px)} 13.642857% {transform: translate(-47.953900px,84.214886px)} 14.214286% {transform: translate(-45.359701px,87.820601px)} 14.785714% {transform: translate(-40.109621px,93.656029px)} 15.214286% {transform: translate(-34.022061px,99.032600px)} 16.214286% {transform: translate(-16.484422px,108.244600px)} 18.500000% {transform: translate(15.201215px,110.679539px)} 19.285714% {transform: translate(24.749402px,112.860299px)} 20.500000% {transform: translate(40.730632px,118.287003px)} 22.214286% {transform: translate(60.880603px,128.359998px)} 23.857143% {transform: translate(74.352917px,137.812111px)} 26.071429% {transform: translate(84.510591px,147.990299px)} 28% {transform: translate(98.983218px,168.620601px)} 29.785714% {transform: translate(107.761546px,186.889296px)} 30.357143% {transform: translate(109.250610px,192.735278px)} 31.785714% {transform: translate(112.042833px,201.692864px)} 34.142857% {transform: translate(114px,216.472882px)} 36.142857% {transform: translate(114.309998px,225.749997px)} 40% {transform: translate(114.309998px,225.749997px)} 42% {transform: translate(114px,216.472882px)} 44.357143% {transform: translate(112.042833px,201.692864px)} 45.785714% {transform: translate(109.250610px,192.735278px)} 46.357143% {transform: translate(107.761546px,186.889296px)} 48.142857% {transform: translate(98.983218px,168.620601px)} 50.071429% {transform: translate(84.510591px,147.990299px)} 52.285714% {transform: translate(74.352917px,137.812111px)} 53.928571% {transform: translate(60.880603px,128.359998px)} 55.642857% {transform: translate(40.730632px,118.287003px)} 56.857143% {transform: translate(24.749402px,112.860299px)} 57.642857% {transform: translate(15.201215px,110.679539px)} 59.928571% {transform: translate(-16.484422px,108.244600px)} 60.928571% {transform: translate(-34.022061px,99.032600px)} 61.357143% {transform: translate(-40.109621px,93.656029px)} 61.928571% {transform: translate(-45.359701px,87.820601px)} 62.500000% {transform: translate(-47.953900px,84.214886px)} 63.928571% {transform: translate(-54.439399px,68.200601px)} 64.857143% {transform: translate(-56.367971px,58.157961px)} 65.928571% {transform: translate(-56.439399px,46.570299px)} 66.428571% {transform: translate(-52.617792px,35.140601px)} 67.428571% {transform: translate(-45.512631px,21.739998px)} 68.928571% {transform: translate(-35.509126px,12.138787px)} 70.571429% {transform: translate(-22.369399px,3.970601px)} 71.928571% {transform: translate(-12.369399px,0.970601px)} 73.285714% {transform: translate(-0px,-0.029399px)} 100% {transform: translate(-0px,-0.029399px)} }#el7bma1upmn31_to {animation: el7bma1upmn31_to__to 14000ms linear infinite normal forwards}@keyframes el7bma1upmn31_to__to { 0% {transform: translate(1392.041874px,499.344679px)} 0.642857% {transform: translate(1393.231098px,514.074379px)} 1.285714% {transform: translate(1396.842176px,533.125829px)} 2.214286% {transform: translate(1403.401572px,550.024078px)} 3.071429% {transform: translate(1413.821572px,568.547907px)} 3.214286% {transform: translate(1415.821572px,569.516587px)} 4.142857% {transform: translate(1430.929483px,585.214866px)} 5.285714% {transform: translate(1444.431572px,596.006403px)} 6.214286% {transform: translate(1464.292176px,606.244411px)} 7.357143% {transform: translate(1486.387176px,612.854075px)} 8.500000% {transform: translate(1507.077397px,614.854075px)} 9.142857% {transform: translate(1507.077397px,614.854075px)} 10.285714% {transform: translate(1486.387176px,612.854075px)} 11.428571% {transform: translate(1464.292176px,606.244411px)} 12.357143% {transform: translate(1444.431572px,596.006403px)} 13.500000% {transform: translate(1430.929483px,585.214866px)} 14.428571% {transform: translate(1415.821572px,569.516587px)} 15.428571% {transform: translate(1403.401572px,550.024078px)} 16.357143% {transform: translate(1396.842176px,533.125829px)} 17% {transform: translate(1393.231098px,514.074379px)} 17.642857% {transform: translate(1392.041874px,499.344679px)} 25.428571% {transform: translate(1392.041874px,499.344679px)} 26.071429% {transform: translate(1393.231098px,514.074379px)} 26.714286% {transform: translate(1396.842176px,533.125829px)} 27.642857% {transform: translate(1403.401572px,550.024078px)} 28.500000% {transform: translate(1413.821572px,568.547907px)} 28.642857% {transform: translate(1415.821572px,569.516587px)} 29.571429% {transform: translate(1430.929483px,585.214866px)} 30.714286% {transform: translate(1444.431572px,596.006403px)} 31.642857% {transform: translate(1464.292176px,606.244411px)} 32.785714% {transform: translate(1486.387176px,612.854075px)} 33.928571% {transform: translate(1507.077397px,614.854075px)} 34.571429% {transform: translate(1507.077397px,614.854075px)} 35.714286% {transform: translate(1486.387176px,612.854075px)} 36.857143% {transform: translate(1464.292176px,606.244411px)} 37.785714% {transform: translate(1444.431572px,596.006403px)} 38.928571% {transform: translate(1430.929483px,585.214866px)} 39.857143% {transform: translate(1415.821572px,569.516587px)} 40.857143% {transform: translate(1403.401572px,550.024078px)} 41.785714% {transform: translate(1396.842176px,533.125829px)} 42.428571% {transform: translate(1393.231098px,514.074379px)} 43.071429% {transform: translate(1392.041874px,499.344679px)} 50.500000% {transform: translate(1392.041874px,499.344679px)} 51.142857% {transform: translate(1393.231098px,514.074379px)} 51.785714% {transform: translate(1396.842176px,533.125829px)} 52.714286% {transform: translate(1403.401572px,550.024078px)} 53.571429% {transform: translate(1413.821572px,568.547907px)} 53.714286% {transform: translate(1415.821572px,569.516587px)} 54.642857% {transform: translate(1430.929483px,585.214866px)} 55.785714% {transform: translate(1444.431572px,596.006403px)} 56.714286% {transform: translate(1464.292176px,606.244411px)} 57.857143% {transform: translate(1486.387176px,612.854075px)} 59% {transform: translate(1507.077397px,614.854075px)} 59.642857% {transform: translate(1507.077397px,614.854075px)} 60.785714% {transform: translate(1486.387176px,612.854075px)} 61.928571% {transform: translate(1464.292176px,606.244411px)} 62.857143% {transform: translate(1444.431572px,596.006403px)} 64% {transform: translate(1430.929483px,585.214866px)} 64.928571% {transform: translate(1415.821572px,569.516587px)} 65.928571% {transform: translate(1403.401572px,550.024078px)} 66.857143% {transform: translate(1396.842176px,533.125829px)} 67.500000% {transform: translate(1393.231098px,514.074379px)} 68.142857% {transform: translate(1392.041874px,499.344679px)} 72.857143% {transform: translate(1392.041874px,499.344679px)} 73.500000% {transform: translate(1393.231098px,514.074379px)} 74.142857% {transform: translate(1396.842176px,533.125829px)} 75.071429% {transform: translate(1403.401572px,550.024078px)} 75.928571% {transform: translate(1413.821572px,568.547907px)} 76.071429% {transform: translate(1415.821572px,569.516587px)} 77% {transform: translate(1430.929483px,585.214866px)} 78.142857% {transform: translate(1444.431572px,596.006403px)} 79.071429% {transform: translate(1464.292176px,606.244411px)} 80.214286% {transform: translate(1486.387176px,612.854075px)} 81.357143% {transform: translate(1507.077397px,614.854075px)} 82% {transform: translate(1507.077397px,614.854075px)} 83.142857% {transform: translate(1486.387176px,612.854075px)} 84.285714% {transform: translate(1464.292176px,606.244411px)} 85.214286% {transform: translate(1444.431572px,596.006403px)} 86.357143% {transform: translate(1430.929483px,585.214866px)} 87.285714% {transform: translate(1415.821572px,569.516587px)} 88.285714% {transform: translate(1403.401572px,550.024078px)} 89.214286% {transform: translate(1396.842176px,533.125829px)} 89.857143% {transform: translate(1393.231098px,514.074379px)} 90.500000% {transform: translate(1392.041874px,499.344679px)} 100% {transform: translate(1392.041874px,499.344679px)} }#el7bma1upmn60_to {animation: el7bma1upmn60_to__to 14000ms linear infinite normal forwards}@keyframes el7bma1upmn60_to__to { 0% {transform: translate(0px,0px)} 0.928571% {transform: translate(-8.834534px,-0.867682px)} 2.214286% {transform: translate(-21.066966px,-3.838318px)} 3.500000% {transform: translate(-33.299398px,-10.808954px)} 4.785714% {transform: translate(-43.292044px,-20.745757px)} 6.428571% {transform: translate(-51.504869px,-33.442783px)} 7.142857% {transform: translate(-54.353007px,-41.259413px)} 10.214286% {transform: translate(-56px,-59.008968px)} 14.285714% {transform: translate(-56px,-189.008968px)} 17.071429% {transform: translate(-55.915699px,-201.584599px)} 20.285714% {transform: translate(-52.371773px,-212.640623px)} 22.714286% {transform: translate(-46.534072px,-224.525439px)} 23.071429% {transform: translate(-45.598348px,-226.387502px)} 24.071429% {transform: translate(-42.978320px,-229.442305px)} 25.285714% {transform: translate(-39.796857px,-233.257423px)} 26.857143% {transform: translate(-36.103619px,-236.398218px)} 29.571429% {transform: translate(-21.741413px,-244.535487px)} 30% {transform: translate(-11.484700px,-247.530016px)} 34.071429% {transform: translate(139.865794px,-247.530016px)} 40.928571% {transform: translate(139.865794px,-247.530016px)} 45% {transform: translate(-11.484700px,-247.530016px)} 45.428571% {transform: translate(-21.741413px,-244.535487px)} 48.142857% {transform: translate(-36.103619px,-236.398218px)} 49.714286% {transform: translate(-39.796857px,-233.257423px)} 50.928571% {transform: translate(-42.978320px,-229.442305px)} 51.928571% {transform: translate(-45.598348px,-226.387502px)} 52.285714% {transform: translate(-46.534072px,-224.525439px)} 54.714286% {transform: translate(-52.371773px,-212.640623px)} 57.928571% {transform: translate(-55.915699px,-201.584599px)} 60.714286% {transform: translate(-56px,-189.008968px)} 64.785714% {transform: translate(-56px,-59.008968px)} 68.571429% {transform: translate(-51.504869px,-33.442783px)} 71.500000% {transform: translate(-33.299398px,-10.808954px)} 75% {transform: translate(0px,0px)} 100% {transform: translate(0px,0px)} }#el7bma1upmn77_to {animation: el7bma1upmn77_to__to 14000ms linear infinite normal forwards}@keyframes el7bma1upmn77_to__to { 0% {transform: translate(0px,0px)} 1% {transform: translate(-18.398602px,0.672133px)} 2.428571% {transform: translate(-57.824178px,8.398131px)} 3.857143% {transform: translate(-92.732092px,23.050000px)} 5.500000% {transform: translate(-126.500008px,45.670000px)} 7.142857% {transform: translate(-149.310002px,67.290000px)} 8.571429% {transform: translate(-169.691080px,94.241812px)} 10% {transform: translate(-183.472884px,120.529999px)} 11.428571% {transform: translate(-191.490002px,142.443624px)} 12.857143% {transform: translate(-197.410002px,169.902582px)} 14.285714% {transform: translate(-199.730002px,199.819999px)} 20.071429% {transform: translate(-199.730002px,199.819999px)} 21.500000% {transform: translate(-197.410002px,169.902582px)} 22.928571% {transform: translate(-191.490002px,142.443624px)} 24.357143% {transform: translate(-183.472884px,120.529999px)} 25.785714% {transform: translate(-169.691080px,94.241812px)} 27.214286% {transform: translate(-149.310002px,67.290000px)} 28.857143% {transform: translate(-126.500008px,45.670000px)} 30.500000% {transform: translate(-92.732092px,23.050000px)} 31.928571% {transform: translate(-57.824178px,8.398131px)} 33.357143% {transform: translate(-18.398602px,0.672133px)} 34.357143% {transform: translate(0px,0px)} 44.285714% {transform: translate(0px,0px)} 45.285714% {transform: translate(-18.398602px,0.672133px)} 46.714286% {transform: translate(-57.824178px,8.398131px)} 48.142857% {transform: translate(-92.732092px,23.050000px)} 49.785714% {transform: translate(-126.500008px,45.670000px)} 51.428571% {transform: translate(-149.310002px,67.290000px)} 52.857143% {transform: translate(-169.691080px,94.241812px)} 54.285714% {transform: translate(-183.472884px,120.529999px)} 55.714286% {transform: translate(-191.490002px,142.443624px)} 57.142857% {transform: translate(-197.410002px,169.902582px)} 58.571429% {transform: translate(-199.730002px,199.819999px)} 64.357143% {transform: translate(-199.730002px,199.819999px)} 65.785714% {transform: translate(-197.410002px,169.902582px)} 67.214286% {transform: translate(-191.490002px,142.443624px)} 68.642857% {transform: translate(-183.472884px,120.529999px)} 70.071429% {transform: translate(-169.691080px,94.241812px)} 71.500000% {transform: translate(-149.310002px,67.290000px)} 73.142857% {transform: translate(-126.500008px,45.670000px)} 74.785714% {transform: translate(-92.732092px,23.050000px)} 76.214286% {transform: translate(-57.824178px,8.398131px)} 77.642857% {transform: translate(-18.398602px,0.672133px)} 78.642857% {transform: translate(0px,0px)} 100% {transform: translate(0px,0px)} }]]></style><g id="el7bma1upmn2" transform="matrix(1 0 0 1 -3.43000000000000 -17.86000000000000)"><path id="el7bma1upmn3" d="M1547.130000,495C1547.124478,475.991662,1531.711674,460.586319,1512.703335,460.590001C1493.694996,460.593682,1478.288161,476.004993,1478.290002,495.013332C1478.291842,514.021671,1493.701661,529.429999,1512.710000,529.430000C1521.840484,529.430000,1530.596862,525.802245,1537.052152,519.345080C1543.507441,512.887915,1547.132653,504.130484,1547.130000,495ZM1512.710000,419.270000C1543.347608,419.257865,1570.974999,437.704710,1582.706979,466.007073C1594.438959,494.309437,1587.964540,526.892266,1566.303339,548.559188C1544.642139,570.226111,1512.061022,576.709136,1483.755560,564.984631C1455.450099,553.260127,1436.995957,525.637610,1437,495C1436.992042,474.913423,1444.964457,455.646524,1459.163124,441.438480C1473.361791,427.230436,1492.623422,419.245303,1512.710000,419.240000Z" fill="rgb(251,99,64)" fill-rule="evenodd" stroke="none" stroke-width="1"/><path id="el7bma1upmn4" d="M1511.240000,515.310000C1502.895035,515.314045,1495.369520,510.290272,1492.173237,502.581691C1488.976954,494.873109,1490.739500,485.998139,1496.638851,480.095926C1502.538202,474.193714,1511.412317,472.426865,1519.122448,475.619410C1526.832578,478.811956,1531.859999,486.335034,1531.860000,494.680000C1531.860001,506.069730,1522.629729,515.304479,1511.240000,515.310000Z" fill="rgb(94,114,228)" fill-rule="evenodd" stroke="none" stroke-width="1"/><path id="el7bma1upmn5" d="M246.780000,1196.640000C246.774692,1191.167772,248.944807,1185.917854,252.812383,1182.046528C256.679958,1178.175201,261.927769,1175.999997,267.400000,1176L391.130000,1176C398.606866,1175.835355,405.587326,1179.730051,409.374097,1186.179159C413.160868,1192.628268,413.160868,1200.621732,409.374097,1207.070841C405.587326,1213.519949,398.606866,1217.414645,391.130000,1217.250000L267.400000,1217.250000C256.015793,1217.250001,246.785521,1208.024206,246.780000,1196.640000Z" fill="rgb(255,199,53)" fill-rule="evenodd" stroke="none" stroke-width="1"/><path id="el7bma1upmn6" d="M86.510000,1108.240000C86.509999,1113.710497,88.683830,1118.956791,92.552993,1122.824079C96.422156,1126.691366,101.669504,1128.862653,107.140000,1128.860000L171.140000,1128.860000C191.961102,1128.881996,211.865516,1120.297765,226.140000,1105.140000C240.411684,1120.301761,260.317915,1128.886775,281.140000,1128.860000L344.400000,1128.860000C386.155292,1128.837919,419.994486,1094.985298,420,1053.230000C420,1041.836366,410.763634,1032.600000,399.370000,1032.600000C387.976366,1032.600000,378.740000,1041.836366,378.740000,1053.230000C378.734480,1072.215263,363.345263,1087.604480,344.360000,1087.610000L281.110000,1087.610000C262.120832,1087.610001,246.725522,1072.219167,246.720000,1053.230000L246.720000,914.330000C246.720001,873.315717,213.474284,840.065523,172.460000,840.060000L172.460000,881.320000C190.685397,881.320000,205.460000,896.094603,205.460000,914.320000L205.460000,1053.220000C205.454480,1072.205263,190.065263,1087.594480,171.080000,1087.600000L107.140000,1087.600000C101.666037,1087.597343,96.415655,1089.771374,92.545916,1093.642989C88.676177,1097.514604,86.504690,1102.766038,86.510000,1108.240000Z" transform="matrix(1 0 0 1 0.00000243000000 0)" fill="rgb(45,206,137)" fill-rule="evenodd" stroke="none" stroke-width="1"/><path id="el7bma1upmn7" d="M354.310000,942C368.237454,942.004045,380.795583,933.616927,386.127257,920.750411C391.458932,907.883894,388.513883,893.072513,378.665685,883.224315C368.817487,873.376117,354.006106,870.431068,341.139589,875.762743C328.273073,881.094417,319.885955,893.652546,319.890000,907.580000C319.890000,918.984680,310.644680,928.230000,299.240000,928.230000C287.835320,928.230000,278.590000,918.984680,278.590000,907.580000C278.601045,865.763604,312.506933,831.872638,354.323330,831.880001C396.139727,831.887364,430.033678,865.790268,430.029997,907.606665C430.026316,949.423062,396.126397,983.319999,354.310000,983.320000C342.899797,983.320000,333.650000,974.070203,333.650000,962.660000C333.650000,951.249797,342.899797,942,354.310000,942Z" transform="matrix(1 0 0 1 1.29291903500001 -0.60999996999999)" fill="rgb(233,236,239)" stroke="none" stroke-width="1"/><path id="el7bma1upmn8" d="M633.780000,130.640000C647.182101,117.205127,647.164391,95.452183,633.740433,82.039149C620.316476,68.626116,598.563524,68.626116,585.139567,82.039149C571.715609,95.452183,571.697899,117.205127,585.100000,130.640000C593.144027,138.703357,593.128357,151.760973,585.065000,159.805000C577.001642,167.849027,563.944027,167.833357,555.900000,159.770000C526.414665,130.216716,526.451383,82.362103,555.982035,52.854101C585.512686,23.346099,633.367314,23.346099,662.897965,52.854101C692.428617,82.362103,692.465335,130.216716,662.980000,159.770000C654.935973,167.833357,641.878357,167.849027,633.815000,159.805000C625.751643,151.760972,625.735973,138.703357,633.780000,130.640000Z" fill="rgb(245,54,92)" fill-rule="evenodd" stroke="none" stroke-width="1"/><path id="el7bma1upmn9" d="M556.850000,131.170000C564.907213,123.115424,577.968179,123.116849,586.023634,131.173183C594.079089,139.229517,594.079089,152.290483,586.023634,160.346817C577.968179,168.403151,564.907213,168.404576,556.850000,160.350000C548.795822,152.290651,548.795822,139.229349,556.850000,131.170000Z" fill="rgb(251,99,64)" fill-rule="evenodd" stroke="none" stroke-width="1"/><path id="el7bma1upmn10" d="M172.530000,881.320000C161.136366,881.320000,151.900000,872.083634,151.900000,860.690000C151.900000,849.296366,161.136366,840.060000,172.530000,840.060000C183.923634,840.060000,193.160000,849.296366,193.160000,860.690000C193.160000,872.083635,183.923634,881.320000,172.530000,881.320000Z" fill="rgb(251,99,64)" fill-rule="evenodd" stroke="none" stroke-width="1"/><path id="el7bma1upmn11" d="M113.560000,947.630000C113.560000,933.708410,105.173836,921.157629,92.311964,915.830066C79.450091,910.502504,64.645436,913.447334,54.801385,923.291385C44.957334,933.135436,42.012504,947.940091,47.340066,960.801964C52.667629,973.663836,65.218410,982.050000,79.140000,982.050000C98.149641,982.050000,113.560000,966.639641,113.560000,947.630000ZM79.140000,871.890000C109.776698,871.877865,137.403456,890.323628,149.136022,918.624764C160.868588,946.925899,154.396002,979.507943,132.736875,1001.175652C111.077749,1022.843361,78.498272,1029.328854,50.192490,1017.607501C21.886709,1005.886148,3.430002,978.266700,3.430000,947.630000C3.424476,905.809380,37.319381,871.901044,79.140000,871.890000Z" fill="rgb(255,199,53)" fill-rule="evenodd" stroke="none" stroke-width="1"/><path id="el7bma1upmn12" d="M142.480000,770C118.980017,770.066181,99.972325,789.149941,100,812.650000L100,892.500000C100.164448,899.958872,96.279239,906.922619,89.845682,910.700336C83.412124,914.478054,75.437876,914.478054,69.004318,910.700336C62.570761,906.922619,58.685552,899.958872,58.850000,892.500000L58.850000,812.650000C58.804869,790.415159,67.595050,769.073220,83.286515,753.319866C98.977980,737.566513,120.285153,728.692392,142.520000,728.650000Z" fill="rgb(233,236,239)" stroke="none" stroke-width="1"/><path id="el7bma1upmn13" d="M79.440000,913.150000C71.095035,913.154045,63.569520,908.130272,60.373237,900.421691C57.176954,892.713109,58.939500,883.838139,64.838851,877.935926C70.738202,872.033714,79.612317,870.266865,87.322448,873.459410C95.032578,876.651956,100.059999,884.175034,100.060000,892.520000C100.060001,903.909730,90.829729,913.144479,79.440000,913.150000Z" fill="rgb(251,99,64)" fill-rule="evenodd" stroke="none" stroke-width="1"/><path id="el7bma1upmn14" d="M78.850000,968C70.505035,968.004045,62.979520,962.980272,59.783237,955.271691C56.586954,947.563109,58.349500,938.688139,64.248851,932.785926C70.148202,926.883714,79.022317,925.116865,86.732448,928.309410C94.442578,931.501956,99.469999,939.025034,99.470000,947.370000C99.470001,958.759730,90.239729,967.994479,78.850000,968Z" fill="rgb(251,99,64)" fill-rule="evenodd" stroke="none" stroke-width="1"/><path id="el7bma1upmn15" d="M83,555.920000C102.009641,555.671472,117.218528,540.059641,116.970000,521.050000C116.721472,502.040359,101.109641,486.831472,82.100000,487.080000C74.635273,487.309754,67.627649,483.493027,63.771502,477.097320C59.915356,470.701612,59.811056,462.722683,63.498705,456.228364C67.186355,449.734045,74.091818,445.735448,81.560000,445.770000C108.783244,445.152569,134.242645,459.196275,148.241766,482.552448C162.240887,505.908622,162.624795,534.981967,149.247275,558.699644C135.869755,582.417321,110.790056,597.128386,83.560000,597.230000C76.097112,597.460565,69.090482,593.646548,65.232961,587.253787C61.375440,580.861027,61.267307,572.884317,64.950122,566.389340C68.632936,559.894362,75.533605,555.891817,83,555.920000Z" fill="rgb(255,199,53)" fill-rule="evenodd" stroke="none" stroke-width="1"/><path id="el7bma1upmn16" d="M183.480000,703.940000C171.186491,703.939999,159.826819,710.498508,153.680065,721.145000C147.533310,731.791491,147.533310,744.908509,153.680065,755.555000C159.826819,766.201492,171.186491,772.760000,183.480000,772.760000C219.629009,772.744084,254.303770,787.088958,279.876232,812.638915C305.448693,838.188872,319.824091,872.850991,319.840000,909C319.840000,920.410203,310.590203,929.660000,299.180000,929.660000C287.769797,929.660000,278.520000,920.410203,278.520000,909C278.520000,856.532949,235.987051,814,183.520000,814C141.717567,814,107.830000,780.112433,107.830000,738.310000C107.830000,696.507567,141.717567,662.620000,183.520000,662.620000C190.893962,662.620000,197.707784,666.553961,201.394765,672.940000C205.081746,679.326038,205.081746,687.193962,201.394765,693.580000C197.707784,699.966039,190.893962,703.900000,183.520000,703.900000Z" fill="rgb(255,199,53)" fill-rule="evenodd" stroke="none" stroke-width="1"/><path id="el7bma1upmn17" d="M873.070000,69.220000C796.987923,69.236566,735.319998,130.917921,735.320000,207C735.554450,214.534392,731.668757,221.598998,725.180056,225.435504C718.691354,229.272011,710.628646,229.272011,704.139944,225.435504C697.651243,221.598998,693.765550,214.534392,694,207C694,108.060000,774.180000,27.860000,873.080000,27.860000C884.495726,27.860000,893.750000,37.114274,893.750000,48.530000C893.750000,59.945726,884.495726,69.200000,873.080000,69.200000Z" fill="rgb(255,199,53)" fill-rule="evenodd" stroke="none" stroke-width="1"/><path id="el7bma1upmn18" d="M1069.870000,196.430000C1069.875305,162.842984,1056.538002,130.629497,1032.792145,106.876139C1009.046289,83.122781,976.837016,69.775304,943.250000,69.770000C931.845320,69.770000,922.600000,60.524680,922.600000,49.120000C922.600000,37.715320,931.845320,28.470000,943.250000,28.470000C987.796471,28.475301,1030.515596,46.179826,1062.006267,77.687376C1093.496938,109.194926,1111.178569,151.923533,1111.160000,196.470000C1111.324724,203.954064,1107.426233,210.941208,1100.970904,214.731601C1094.515575,218.521993,1086.514425,218.521993,1080.059096,214.731601C1073.603767,210.941208,1069.705276,203.954064,1069.870000,196.470000Z" fill="rgb(45,206,137)" fill-rule="evenodd" stroke="none" stroke-width="1"/><g id="el7bma1upmn19_to" transform="translate(0,0)"><path id="el7bma1upmn19" d="M62.350000,576.870000C62.207416,565.484526,71.320261,556.138514,82.705704,555.993462C94.091146,555.848411,103.439133,564.959230,103.586653,576.344641C103.734172,587.730052,94.625378,597.080013,83.240000,597.230000C71.849858,597.374525,62.498166,588.260095,62.350000,576.870000Z" transform="translate(0,0)" fill="rgb(251,99,64)" fill-rule="evenodd" stroke="none" stroke-width="1"/></g><g id="el7bma1upmn20_to" transform="translate(0,0)"><path id="el7bma1upmn20" d="M299.220000,929.650000C287.827670,929.655517,278.587374,920.425659,278.580014,909.033330C278.572654,897.641001,287.801017,888.399212,299.193345,888.390009C310.585672,888.380806,319.828954,897.607674,319.840000,909C319.845307,914.473148,317.675511,919.724093,313.808223,923.597007C309.940935,927.469922,304.693150,929.647350,299.220000,929.650000Z" transform="translate(0,0)" fill="rgb(251,99,64)" fill-rule="evenodd" stroke="none" stroke-width="1"/></g><path id="el7bma1upmn21" d="M399.380000,1074.050000C391.035035,1074.054045,383.509520,1069.030272,380.313237,1061.321691C377.116954,1053.613109,378.879500,1044.738139,384.778851,1038.835926C390.678202,1032.933714,399.552317,1031.166865,407.262448,1034.359410C414.972578,1037.551956,419.999999,1045.075034,420,1053.420000C420.002653,1058.890496,417.831366,1064.137844,413.964079,1068.007007C410.096791,1071.876170,404.850497,1074.050001,399.380000,1074.050000Z" fill="rgb(251,99,64)" fill-rule="evenodd" stroke="none" stroke-width="1"/><path id="el7bma1upmn22" d="M106.540000,1128.860000C98.194125,1128.864045,90.667978,1123.839189,87.472281,1116.129380C84.276585,1108.419570,86.040964,1099.543815,91.942390,1093.642390C97.843815,1087.740964,106.719570,1085.976585,114.429380,1089.172281C122.139189,1092.367978,127.164045,1099.894125,127.160000,1108.240000C127.160000,1119.628112,117.928112,1128.860000,106.540000,1128.860000Z" fill="rgb(251,99,64)" fill-rule="evenodd" stroke="none" stroke-width="1"/><path id="el7bma1upmn23" d="M299.220000,984.460000C290.874125,984.464045,283.347978,979.439189,280.152281,971.729380C276.956585,964.019570,278.720964,955.143815,284.622390,949.242390C290.523815,943.340964,299.399570,941.576585,307.109380,944.772281C314.819189,947.967978,319.844045,955.494125,319.840000,963.840000C319.834482,975.225825,310.605825,984.454482,299.220000,984.460000Z" fill="rgb(94,114,228)" fill-rule="evenodd" stroke="none" stroke-width="1"/><path id="el7bma1upmn24" d="M299.220000,1039.870000C290.875035,1039.874045,283.349520,1034.850272,280.153237,1027.141691C276.956954,1019.433109,278.719500,1010.558139,284.618851,1004.655926C290.518202,998.753714,299.392317,996.986865,307.102448,1000.179410C314.812578,1003.371956,319.839999,1010.895034,319.840000,1019.240000C319.840001,1030.629730,310.609729,1039.864479,299.220000,1039.870000Z" fill="rgb(94,114,228)" fill-rule="evenodd" stroke="none" stroke-width="1"/><path id="el7bma1upmn25" d="M454.770000,1081.120000C446.424125,1081.124045,438.897978,1076.099189,435.702281,1068.389380C432.506585,1060.679570,434.270964,1051.803815,440.172390,1045.902390C446.073815,1040.000964,454.949570,1038.236585,462.659380,1041.432281C470.369189,1044.627978,475.394045,1052.154125,475.390000,1060.500000C475.390000,1071.888112,466.158112,1081.120000,454.770000,1081.120000Z" fill="rgb(251,99,64)" fill-rule="evenodd" stroke="none" stroke-width="1"/><path id="el7bma1upmn26" d="M454.770000,1135.940000C446.425035,1135.944045,438.899520,1130.920272,435.703237,1123.211691C432.506954,1115.503109,434.269500,1106.628139,440.168851,1100.725926C446.068202,1094.823714,454.942317,1093.056865,462.652448,1096.249410C470.362578,1099.441956,475.389999,1106.965034,475.390000,1115.310000C475.390001,1126.699730,466.159729,1135.934479,454.770000,1135.940000Z" fill="rgb(251,99,64)" fill-rule="evenodd" stroke="none" stroke-width="1"/><path id="el7bma1upmn27" d="M1412.670000,496.200000C1412.664696,516.279541,1404.683043,535.534569,1390.480913,549.729197C1376.278783,563.923826,1357.019541,571.895305,1336.940000,571.890000L1199.260000,571.890000C1157.457567,571.890000,1123.570000,538.002433,1123.570000,496.200000C1123.570000,454.397567,1157.457567,420.510000,1199.260000,420.510000L1243.320000,420.510000L1243.320000,377.160000C1243.331040,335.367664,1277.207664,301.491040,1319,301.480000L1456.690000,301.480000C1475.695737,301.480001,1491.104478,286.075736,1491.110000,267.070000L1491.110000,203.770000C1491.104478,184.764264,1475.695737,169.359999,1456.690000,169.360000C1445.290843,169.360000,1436.050000,160.119157,1436.050000,148.720000C1436.050000,137.320843,1445.290843,128.080000,1456.690000,128.080000C1498.499574,128.074476,1532.398956,161.960427,1532.410000,203.770000L1532.410000,267.070000C1532.433242,287.912001,1523.837512,307.835999,1508.660000,322.120000C1523.824840,336.392096,1532.419438,356.295375,1532.410000,377.120000L1532.410000,439.050000C1532.409999,450.454680,1523.164680,459.699999,1511.760000,459.699999C1500.355320,459.699999,1491.110001,450.454680,1491.110000,439.050000L1491.110000,377.160000C1491.107348,368.033900,1487.479476,359.282636,1481.024474,352.831384C1474.569471,346.380133,1465.816100,342.757347,1456.690000,342.760000L1319,342.760000C1309.873900,342.757347,1301.120529,346.380133,1294.665526,352.831384C1288.210524,359.282636,1284.582652,368.033900,1284.580000,377.160000L1284.580000,420.510000L1336.900000,420.510000C1356.986469,420.494081,1376.255990,428.460873,1390.466773,442.656652C1404.677556,456.852432,1412.664700,476.113525,1412.670000,496.200000ZM1199.260000,461.800000C1186.828474,461.588052,1175.249488,468.098858,1168.971735,478.830940C1162.693983,489.563021,1162.693983,502.846979,1168.971735,513.579060C1175.249488,524.311142,1186.828474,530.821948,1199.260000,530.610000L1336.940000,530.610000C1349.371526,530.821948,1360.950512,524.311142,1367.228265,513.579060C1373.506017,502.846979,1373.506017,489.563021,1367.228265,478.830940C1360.950512,468.098858,1349.371526,461.588052,1336.940000,461.800000Z" fill="rgb(45,206,137)" fill-rule="evenodd" stroke="none" stroke-width="1"/><g id="el7bma1upmn28_to" transform="translate(-0,-0.029399)"><path id="el7bma1upmn28" d="M184.910000,703.910000C176.564125,703.914045,169.037978,698.889189,165.842281,691.179380C162.646585,683.469570,164.410964,674.593815,170.312390,668.692390C176.213815,662.790964,185.089570,661.026585,192.799380,664.222281C200.509189,667.417978,205.534045,674.944125,205.530000,683.290000C205.524482,694.675825,196.295825,703.904482,184.910000,703.910000Z" transform="translate(0,0)" fill="rgb(251,99,64)" fill-rule="evenodd" stroke="none" stroke-width="1"/></g><path id="el7bma1upmn29" d="M1103.590000,298C1123.050777,305.821861,1145.336396,299.281676,1157.483918,282.183691C1169.631440,265.085706,1168.472740,241.889149,1154.681802,226.086827C1140.890864,210.284504,1118.064423,205.997728,1099.480000,215.720000C1089.367666,220.966705,1076.916705,217.022334,1071.670000,206.910000C1066.423295,196.797666,1070.367666,184.346705,1080.480000,179.100000C1103.161483,167.376607,1129.841174,166.181503,1153.480000,175.830000C1197.930000,193.910000,1219.480000,244.440000,1201.370000,288.830000C1183.260000,333.220000,1132.440000,354.290000,1088,336.210000C1081.174441,333.425115,1076.353083,327.210382,1075.352084,319.906832C1074.351086,312.603282,1077.322523,305.320497,1083.147084,300.801832C1088.971645,296.283167,1096.764441,295.215115,1103.590000,298Z" fill="rgb(255,199,53)" fill-rule="evenodd" stroke="none" stroke-width="1"/><path id="el7bma1upmn30" d="M1412.250000,500.570000C1412.244695,525.735473,1422.237238,549.872195,1440.029101,567.669685C1457.820965,585.467175,1481.954527,595.467348,1507.120000,595.470000C1518.333937,595.716938,1527.295825,604.878345,1527.295825,616.095000C1527.295825,627.311655,1518.333937,636.473062,1507.120000,636.720000C1471.013533,636.720001,1436.386331,622.374710,1410.858017,596.840769C1385.329702,571.306828,1370.992042,536.676466,1371,500.570000C1371,489.181888,1380.231888,479.950000,1391.620000,479.950000C1403.008112,479.950000,1412.240000,489.181888,1412.240000,500.570000Z" fill="rgb(255,199,53)" fill-rule="evenodd" stroke="none" stroke-width="1"/><g id="el7bma1upmn31_to" transform="translate(1392.041874,499.344679)"><path id="el7bma1upmn31" d="M1391.218126,521.235623C1382.872251,521.239668,1375.346104,516.214812,1372.150407,508.505003C1368.954711,500.795193,1370.719090,491.919438,1376.620516,486.018013C1382.521941,480.116587,1391.397696,478.352208,1399.107506,481.547904C1406.817315,484.743601,1411.842171,492.269748,1411.838126,500.615623C1411.838126,512.003735,1402.606238,521.235623,1391.218126,521.235623Z" transform="translate(-1391.619701,-499.369701)" fill="rgb(251,99,64)" fill-rule="evenodd" stroke="none" stroke-width="1"/></g><path id="el7bma1upmn32" d="M458.890000,1174.840000C511.271255,1174.834484,553.737917,1132.381251,553.760000,1080C553.760000,1068.611888,562.991888,1059.380000,574.380000,1059.380000C585.768112,1059.380000,595,1068.611888,595,1080C595.005305,1116.103001,580.667846,1150.729279,555.141982,1176.260769C529.616118,1201.792259,494.993001,1216.137348,458.890000,1216.140000C447.676063,1215.893062,438.714175,1206.731655,438.714175,1195.515000C438.714175,1184.298345,447.676063,1175.136938,458.890000,1174.890000Z" fill="rgb(233,236,239)" stroke="none" stroke-width="1"/><path id="el7bma1upmn33" d="M1467.340000,1216.090000C1447.271067,1216.100611,1428.019891,1208.138434,1413.821511,1193.955058C1399.623131,1179.771681,1391.640606,1160.528933,1391.630000,1140.460000L1391.630000,1002.930000C1392.106674,961.453160,1425.865421,928.080158,1467.345000,928.080158C1508.824579,928.080158,1542.583326,961.453160,1543.060000,1002.930000L1543.060000,1140.460000C1543.049395,1160.530666,1535.065497,1179.774930,1520.864954,1193.958595C1506.664411,1208.142259,1487.410665,1216.103265,1467.340000,1216.090000ZM1501.760000,1140.460000L1501.760000,1002.930000C1501.439893,984.151803,1486.125926,969.096664,1467.345000,969.096664C1448.564074,969.096664,1433.250107,984.151803,1432.930000,1002.930000L1432.930000,1140.460000C1433.250107,1159.238197,1448.564074,1174.293336,1467.345000,1174.293336C1486.125926,1174.293336,1501.439893,1159.238197,1501.760000,1140.460000Z" fill="rgb(45,206,137)" fill-rule="evenodd" stroke="none" stroke-width="1"/><path id="el7bma1upmn34" d="M1488.380000,948C1488.419743,927.928404,1496.431289,908.694680,1510.652181,894.530049C1524.873074,880.365418,1544.138404,872.430178,1564.210000,872.470000C1575.587066,872.470000,1584.810000,863.247066,1584.810000,851.870000C1584.810000,840.492934,1575.587066,831.270000,1564.210000,831.270000C1499.490000,831.270000,1447.010000,883.530000,1447.010000,948C1447.257302,959.246816,1456.445465,968.235165,1467.695000,968.235165C1478.944535,968.235165,1488.132698,959.246816,1488.380000,948Z" fill="rgb(233,236,239)" stroke="none" stroke-width="1"/><path id="el7bma1upmn35" d="M1488.260000,947.920000C1488.259999,939.575034,1483.232578,932.051956,1475.522448,928.859410C1467.812317,925.666865,1458.938202,927.433714,1453.038851,933.335926C1447.139500,939.238139,1445.376954,948.113109,1448.573237,955.821691C1451.769520,963.530272,1459.295035,968.554045,1467.640000,968.550000C1479.029729,968.544479,1488.260001,959.309730,1488.260000,947.920000Z" fill="rgb(251,99,64)" fill-rule="evenodd" stroke="none" stroke-width="1"/><path id="el7bma1upmn36" d="M1282.920000,1105.930000C1268.992548,1105.921910,1256.431984,1114.305379,1251.096572,1127.170345C1245.761160,1140.035312,1248.701905,1154.847548,1258.547241,1164.698607C1268.392577,1174.549665,1283.203102,1177.499017,1296.071167,1172.171081C1308.939232,1166.843145,1317.329998,1154.287455,1317.330000,1140.360000C1317.330003,1121.352644,1301.927353,1105.941041,1282.920000,1105.930000ZM1207.200000,1140.360000C1207.205523,1098.542301,1241.108967,1064.646319,1282.926666,1064.650000C1324.744365,1064.653682,1358.641840,1098.555634,1358.639999,1140.373333C1358.638159,1182.191032,1324.737699,1216.090000,1282.920000,1216.090000C1241.099381,1216.084478,1207.200000,1182.180619,1207.200000,1140.360000Z" fill="rgb(255,199,53)" fill-rule="evenodd" stroke="none" stroke-width="1"/><path id="el7bma1upmn37" d="M1138.320000,1027.190000C1138.320001,1041.112500,1146.707247,1053.663913,1159.570347,1058.990889C1172.433447,1064.317865,1187.238887,1061.371202,1197.082151,1051.525078C1206.925415,1041.678953,1209.867775,1026.872658,1204.537063,1014.011106C1199.206350,1001.149554,1186.652500,992.765955,1172.730000,992.770000C1161.499624,992.522880,1152.524505,983.348095,1152.524505,972.115000C1152.524505,960.881905,1161.499624,951.707120,1172.730000,951.460000C1203.367608,951.447865,1230.994999,969.894710,1242.726979,998.197073C1254.458959,1026.499437,1247.984540,1059.082266,1226.323339,1080.749188C1204.662139,1102.416111,1172.081022,1108.899136,1143.775560,1097.174631C1115.470099,1085.450127,1097.015957,1057.827610,1097.020000,1027.190000C1097.020000,1019.812465,1100.955867,1012.995342,1107.345000,1009.306575C1113.734132,1005.617807,1121.605868,1005.617807,1127.995000,1009.306575C1134.384133,1012.995342,1138.320000,1019.812465,1138.320000,1027.190000Z" fill="rgb(94,114,228)" fill-rule="evenodd" stroke="none" stroke-width="1"/><path id="el7bma1upmn38" d="M1138.260000,1026.900000C1138.254478,1038.286808,1129.020145,1047.513680,1117.633337,1047.509999C1106.246528,1047.506318,1097.018163,1038.273478,1097.020003,1026.886668C1097.021843,1015.499859,1106.253191,1006.270001,1117.640000,1006.270000C1129.029729,1006.275521,1138.260001,1015.510270,1138.260000,1026.900000Z" fill="rgb(251,99,64)" fill-rule="evenodd" stroke="none" stroke-width="1"/><path id="el7bma1upmn39" d="M1248.450000,1140.650000C1248.449999,1148.994966,1243.422578,1156.518044,1235.712448,1159.710590C1228.002317,1162.903135,1219.128202,1161.136286,1213.228851,1155.234074C1207.329500,1149.331861,1205.566954,1140.456891,1208.763237,1132.748309C1211.959520,1125.039728,1219.485035,1120.015955,1227.830000,1120.020000C1239.219729,1120.025521,1248.450001,1129.260270,1248.450000,1140.650000Z" fill="rgb(251,99,64)" fill-rule="evenodd" stroke="none" stroke-width="1"/><path id="el7bma1upmn40" d="M1303.830000,1140.060000C1303.824478,1151.446808,1294.590145,1160.673680,1283.203337,1160.669999C1271.816528,1160.666318,1262.588163,1151.433478,1262.590003,1140.046668C1262.591843,1128.659859,1271.823191,1119.430001,1283.210000,1119.430000C1288.680497,1119.429999,1293.926791,1121.603830,1297.794079,1125.472993C1301.661366,1129.342156,1303.832653,1134.589504,1303.830000,1140.060000Z" fill="rgb(251,99,64)" fill-rule="evenodd" stroke="none" stroke-width="1"/><path id="el7bma1upmn41" d="M1313.220000,68C1277.773816,68.005304,1243.781522,82.091333,1218.721036,107.159320C1193.660550,132.227308,1179.584695,166.223816,1179.590000,201.670000C1179.754802,209.161262,1175.852517,216.155090,1169.390968,219.949105C1162.929418,223.743119,1154.920582,223.743119,1148.459032,219.949105C1141.997483,216.155090,1138.095198,209.161262,1138.260000,201.670000C1138.260000,105.020000,1216.590000,26.670000,1313.260000,26.670000C1324.675726,26.670000,1333.930000,35.924274,1333.930000,47.340000C1333.930000,58.755726,1324.675726,68.010000,1313.260000,68.010000Z" fill="rgb(233,236,239)" stroke="none" stroke-width="1"/><path id="el7bma1upmn42" d="M1277.320000,1012.170000C1277.325305,987.006259,1267.334135,962.871053,1249.544434,945.073850C1231.754733,927.276648,1207.623741,917.275304,1182.460000,917.270000C1174.983134,917.434645,1168.002674,913.539949,1164.215903,907.090841C1160.429132,900.641732,1160.429132,892.648268,1164.215903,886.199159C1168.002674,879.750051,1174.983134,875.855355,1182.460000,876.020000C1218.563921,876.025304,1253.187012,890.372618,1278.712589,915.905696C1304.238165,941.438774,1318.575305,976.066079,1318.570000,1012.170000C1318.323062,1023.383937,1309.161655,1032.345825,1297.945000,1032.345825C1286.728345,1032.345825,1277.566938,1023.383937,1277.320000,1012.170000Z" fill="rgb(251,99,64)" fill-rule="evenodd" stroke="none" stroke-width="1"/><path id="el7bma1upmn43" d="M45.850000,1080C45.847348,1105.163741,55.841061,1129.297894,73.632637,1147.093220C91.424214,1164.888547,115.556259,1174.887348,140.720000,1174.890000C151.933937,1175.136938,160.895825,1184.298345,160.895825,1195.515000C160.895825,1206.731655,151.933937,1215.893062,140.720000,1216.140000C104.616999,1216.137348,69.993882,1201.792259,44.468018,1176.260769C18.942154,1150.729279,4.604695,1116.103001,4.610000,1080C4.610000,1068.611888,13.841888,1059.380000,25.230000,1059.380000C36.618112,1059.380000,45.850000,1068.611888,45.850000,1080Z" fill="rgb(45,206,137)" fill-rule="evenodd" stroke="none" stroke-width="1"/><path id="el7bma1upmn44" d="M436.800000,141C422.871638,141.008090,410.310441,132.623539,404.975615,119.757344C399.640789,106.891149,402.583368,92.078128,412.430778,82.227857C422.278188,72.377585,437.090354,69.430702,449.958098,74.761789C462.825842,80.092876,471.214043,92.651636,471.210000,106.580000C471.210001,125.585737,455.805736,140.994478,436.800000,141ZM361.080000,106.580000C361.096567,148.395092,395.004898,182.281041,436.819992,182.269997C478.635086,182.258954,512.525514,148.355099,512.519993,106.540004C512.514473,64.724909,478.615095,30.830003,436.800000,30.830000C416.715155,30.832652,397.453987,38.813869,383.253732,53.017874C369.053478,67.221880,361.077348,86.485155,361.080000,106.570000Z" fill="rgb(255,199,53)" fill-rule="evenodd" stroke="none" stroke-width="1"/><path id="el7bma1upmn45" d="M24.050000,198.810000C29.523150,198.812650,34.770935,200.990078,38.638223,204.862993C42.505511,208.735907,44.675307,213.986852,44.670000,219.460000C44.658926,238.439099,60.020937,253.841383,79,253.880000L216.530000,253.880000C235.524690,253.863438,250.911051,238.454694,250.900000,219.460000C250.900000,212.093183,254.830149,205.285964,261.210000,201.602556C267.589850,197.919147,275.450150,197.919147,281.830000,201.602556C288.209851,205.285964,292.140000,212.093183,292.140000,219.460000C292.155919,239.528013,284.198511,258.780270,270.018597,272.980813C255.838683,287.181357,236.598015,295.166744,216.530000,295.180000L81.790000,295.180000C62.795310,295.196562,47.408949,310.605306,47.420000,329.600000L47.420000,467.290000C47.408949,486.284694,62.795310,501.693438,81.790000,501.710000C93.194680,501.710000,102.440000,510.955320,102.440000,522.360000C102.440000,533.764680,93.194680,543.010000,81.790000,543.010000C61.721985,542.996744,42.481317,535.011357,28.301403,520.810813C14.121489,506.610270,6.164081,487.358013,6.180000,467.290000L6.180000,329.600000C6.154702,309.408071,14.210111,290.045562,28.550000,275.830000C12.537289,261.470245,3.401084,240.968339,3.430000,219.460000C3.424693,213.986852,5.594489,208.735907,9.461777,204.862993C13.329065,200.990078,18.576850,198.812650,24.050000,198.810000Z" transform="matrix(1 0 0 1 -0.00002141000004 -0.33437870000006)" fill="rgb(45,206,137)" fill-rule="evenodd" stroke="none" stroke-width="1"/><path id="el7bma1upmn46" d="M222,144.180000C233.280286,109.599250,265.535935,86.207749,301.910000,86.230000L381.730000,86.230000C393.096020,86.230000,402.310000,95.443980,402.310000,106.810000C402.310000,118.176020,393.096020,127.390000,381.730000,127.390000L301.860000,127.390000C282.815599,127.369548,266.064390,139.974782,260.810000,158.280000C280.491546,172.451175,292.151371,195.227468,292.140000,219.480000C292.140000,230.868112,282.908112,240.100000,271.520000,240.100000C260.131888,240.100000,250.900000,230.868112,250.900000,219.480000C250.892047,210.372465,247.266464,201.641110,240.820837,195.206736C234.375211,188.772362,225.637535,185.162040,216.530000,185.170000L79,185.170000C69.892465,185.162040,61.154789,188.772362,54.709163,195.206736C48.263536,201.641110,44.637953,210.372465,44.630000,219.480000C44.630000,230.868112,35.398112,240.100000,24.010000,240.100000C12.621888,240.100000,3.390000,230.868112,3.390000,219.480000C3.428643,177.758788,37.278784,143.966848,79,144L216.530000,144C218.350000,144,220.160000,144.070000,221.950000,144.190000Z" fill="rgb(233,236,239)" stroke="none" stroke-width="1"/><g id="el7bma1upmn47"><path id="el7bma1upmn48" d="M292.200000,219.730000C292.205524,200.720360,307.620359,185.314480,326.629999,185.320003C345.639639,185.325526,361.045520,200.740361,361.039997,219.750001C361.034475,238.759641,345.619640,254.165522,326.610000,254.160000C315.379624,254.407120,306.404505,263.581905,306.404505,274.815000C306.404505,286.048095,315.379624,295.222880,326.610000,295.470000C357.246698,295.482135,384.873456,277.036372,396.606022,248.735236C408.338588,220.434101,401.866002,187.852057,380.206875,166.184348C358.547749,144.516639,325.968272,138.031146,297.662490,149.752499C269.356709,161.473852,250.900002,189.093300,250.900000,219.730000C250.900000,231.134680,260.145320,240.380000,271.550000,240.380000C282.954680,240.380000,292.200000,231.134680,292.200000,219.730000Z" fill="rgb(94,114,228)" fill-rule="evenodd" stroke="none" stroke-width="1"/><path id="el7bma1upmn49" d="M292.140000,220C292.134478,208.613192,282.900145,199.386320,271.513337,199.390001C260.126528,199.393682,250.898163,208.626522,250.900003,220.013332C250.901843,231.400141,260.133191,240.629999,271.520000,240.630000C276.990497,240.630001,282.236791,238.456170,286.104079,234.587007C289.971366,230.717844,292.142653,225.470496,292.140000,220Z" fill="rgb(251,99,64)" fill-rule="evenodd" stroke="none" stroke-width="1"/><path id="el7bma1upmn50" d="M44.670000,219.430000C44.664478,208.043192,35.430145,198.816320,24.043337,198.820001C12.656528,198.823682,3.428163,208.056522,3.430003,219.443332C3.431843,230.830141,12.663191,240.059999,24.050000,240.060000C29.520497,240.060001,34.766791,237.886170,38.634079,234.017007C42.501366,230.147844,44.672653,224.900496,44.670000,219.430000Z" fill="rgb(94,114,228)" fill-rule="evenodd" stroke="none" stroke-width="1"/><path id="el7bma1upmn51" d="M271.520000,345C271.528091,336.658173,266.509322,329.133237,258.804800,325.935350C251.100278,322.737463,242.227970,324.496683,236.326544,330.392385C230.425118,336.288088,228.657289,345.158684,231.847698,352.866306C235.038107,360.573928,242.558169,365.599996,250.900000,365.600000C262.280306,365.600005,271.508962,356.380300,271.520000,345Z" fill="rgb(94,114,228)" fill-rule="evenodd" stroke="none" stroke-width="1"/><path id="el7bma1upmn52" d="M271.520000,399.790000C271.514478,388.403192,262.280145,379.176320,250.893337,379.180001C239.506528,379.183682,230.278163,388.416522,230.280003,399.803332C230.281843,411.190141,239.513191,420.419999,250.900000,420.420000C262.289729,420.414479,271.520001,411.179730,271.520000,399.790000Z" fill="rgb(94,114,228)" fill-rule="evenodd" stroke="none" stroke-width="1"/><path id="el7bma1upmn53" d="M226.150000,1196.640000C226.144478,1185.253192,216.910145,1176.026320,205.523337,1176.030001C194.136528,1176.033682,184.908163,1185.266522,184.910003,1196.653332C184.911843,1208.040141,194.143191,1217.269999,205.530000,1217.270000C211.000497,1217.270001,216.246791,1215.096170,220.114079,1211.227007C223.981366,1207.357844,226.152653,1202.110496,226.150000,1196.640000Z" fill="rgb(94,114,228)" fill-rule="evenodd" stroke="none" stroke-width="1"/><path id="el7bma1upmn54" d="M288,1196.640000C287.994478,1185.253192,278.760145,1176.026320,267.373337,1176.030001C255.986528,1176.033682,246.758163,1185.266522,246.760003,1196.653332C246.761843,1208.040141,255.993191,1217.269999,267.380000,1217.270000C272.850497,1217.270001,278.096791,1215.096170,281.964079,1211.227007C285.831366,1207.357844,288.002653,1202.110496,288,1196.640000Z" fill="rgb(251,99,64)" fill-rule="evenodd" stroke="none" stroke-width="1"/><path id="el7bma1upmn55" d="M474.210000,1195.470000C474.210000,1187.129989,469.186098,1179.611188,461.480932,1176.419604C453.775766,1173.228020,444.906737,1174.992179,439.009458,1180.889458C433.112179,1186.786737,431.348020,1195.655766,434.539604,1203.360932C437.731188,1211.066098,445.249989,1216.090000,453.590000,1216.090000C464.978112,1216.090000,474.210000,1206.858112,474.210000,1195.470000Z" fill="rgb(94,114,228)" fill-rule="evenodd" stroke="none" stroke-width="1"/><path id="el7bma1upmn56" d="M402.330000,106.860000C402.329999,98.515034,397.302578,90.991956,389.592448,87.799410C381.882317,84.606865,373.008202,86.373714,367.108851,92.275926C361.209500,98.178139,359.446954,107.053109,362.643237,114.761691C365.839520,122.470272,373.365035,127.494045,381.710000,127.490000C393.099729,127.484479,402.330001,118.249730,402.330000,106.860000Z" fill="rgb(251,99,64)" fill-rule="evenodd" stroke="none" stroke-width="1"/><path id="el7bma1upmn57" d="M457.720000,106.860000C457.720000,95.466366,448.483635,86.230000,437.090000,86.230000C425.696366,86.230000,416.460000,95.466365,416.460000,106.860000C416.460000,118.253634,425.696365,127.490000,437.090000,127.490000C448.483634,127.490000,457.720000,118.253634,457.720000,106.860000Z" fill="rgb(251,99,64)" fill-rule="evenodd" stroke="none" stroke-width="1"/><path id="el7bma1upmn58" d="M202.630000,198.750000C183.846313,198.429845,168.786750,183.111415,168.786750,164.325000C168.786750,145.538585,183.846313,130.220155,202.630000,129.900000C213.860376,129.652880,222.835495,120.478095,222.835495,109.245000C222.835495,98.011905,213.860376,88.837120,202.630000,88.590000C161.142159,89.066738,127.760273,122.834420,127.760273,164.325000C127.760273,205.815580,161.142159,239.583262,202.630000,240.060000C213.860376,239.812880,222.835495,230.638095,222.835495,219.405000C222.835495,208.171905,213.860376,198.997120,202.630000,198.750000Z" fill="rgb(255,199,53)" fill-rule="evenodd" stroke="none" stroke-width="1"/><path id="el7bma1upmn59" d="M100.060000,406.860000C125.222821,406.862652,149.353839,416.861771,167.143828,434.657386C184.933816,452.453001,194.925305,476.587179,194.920000,501.750000C194.755355,509.226866,198.650051,516.207326,205.099159,519.994097C211.548268,523.780868,219.541732,523.780868,225.990841,519.994097C232.439949,516.207326,236.334645,509.226866,236.170000,501.750000C236.175305,465.646079,221.838165,431.018774,196.312589,405.485696C170.787012,379.952618,136.163921,365.605304,100.060000,365.600000C88.666366,365.600000,79.430000,374.836366,79.430000,386.230000C79.430000,397.623634,88.666366,406.860000,100.060000,406.860000Z" fill="rgb(251,99,64)" fill-rule="evenodd" stroke="none" stroke-width="1"/><g id="el7bma1upmn60_to" transform="translate(0,0)"><path id="el7bma1upmn60" d="M103.590000,522.380000C103.589991,514.037260,98.562837,506.516569,90.853988,503.326751C83.145138,500.136932,74.273759,501.906597,68.378848,507.810098C62.483936,513.713599,60.727189,522.587545,63.928228,530.291742C67.129267,537.995939,74.657269,543.012138,83,543C94.374108,542.977948,103.584508,533.754128,103.590000,522.380000Z" transform="translate(0,0)" fill="rgb(251,99,64)" fill-rule="evenodd" stroke="none" stroke-width="1"/></g><path id="el7bma1upmn61" d="M507.210000,212.360000C507.204476,200.966368,497.963634,191.734482,486.570002,191.740005C475.176369,191.745528,465.944482,200.986369,465.950005,212.380002C465.955527,223.773634,475.196368,233.005522,486.590000,233C492.061416,232.997348,497.307684,230.821294,501.174685,226.950543C505.041685,223.079792,507.212653,217.831416,507.210000,212.360000Z" fill="rgb(251,99,64)" fill-rule="evenodd" stroke="none" stroke-width="1"/><path id="el7bma1upmn62" d="M1103.940000,212.210000C1095.886088,220.258987,1082.832519,220.256326,1074.781890,212.204055C1066.731260,204.151785,1066.731260,191.098215,1074.781890,183.045945C1082.832519,174.993674,1095.886088,174.991013,1103.940000,183.040000C1107.812183,186.906058,1109.988068,192.153236,1109.988068,197.625000C1109.988068,203.096764,1107.812183,208.343942,1103.940000,212.210000Z" fill="rgb(94,114,228)" fill-rule="evenodd" stroke="none" stroke-width="1"/><path id="el7bma1upmn63" d="M963.710000,150.330000C955.652787,158.384576,942.591821,158.383151,934.536366,150.326817C926.480911,142.270483,926.480911,129.209517,934.536366,121.153183C942.591821,113.096849,955.652787,113.095424,963.710000,121.150000C971.764178,129.209349,971.764178,142.270651,963.710000,150.330000Z" fill="rgb(94,114,228)" fill-rule="evenodd" stroke="none" stroke-width="1"/><path id="el7bma1upmn64" d="M3.430000,658.530000C3.429999,647.140270,12.660271,637.905521,24.050000,637.900000L90,637.900000C101.393634,637.900000,110.630000,647.136366,110.630000,658.530000C110.630000,669.923634,101.393634,679.160000,90,679.160000L24,679.160000C12.629804,679.126931,3.429952,669.900244,3.430000,658.530000Z" fill="rgb(94,114,228)" fill-rule="evenodd" stroke="none" stroke-width="1"/><path id="el7bma1upmn65" d="M659.820000,1213.150000C654.354808,1213.155307,649.111494,1210.988671,645.244206,1207.127010C641.376918,1203.265348,639.202650,1198.025194,639.200000,1192.560000L639.200000,1133.560000C639.200000,1122.171888,648.431888,1112.940000,659.820000,1112.940000C671.208112,1112.940000,680.440000,1122.171888,680.440000,1133.560000L680.440000,1192.560000C680.437350,1198.025194,678.263082,1203.265348,674.395794,1207.127010C670.528506,1210.988671,665.285192,1213.155307,659.820000,1213.150000Z" fill="rgb(45,206,137)" fill-rule="evenodd" stroke="none" stroke-width="1"/><path id="el7bma1upmn66" d="M758.810000,1196.640000C758.807346,1191.165118,760.981058,1185.913711,764.852385,1182.042385C768.723711,1178.171058,773.975118,1175.997346,779.450000,1176L943.210000,1176C950.686866,1175.835355,957.667326,1179.730051,961.454097,1186.179159C965.240868,1192.628268,965.240868,1200.621732,961.454097,1207.070841C957.667326,1213.519949,950.686866,1217.414645,943.210000,1217.250000L779.450000,1217.250000C768.060267,1217.255526,758.821041,1208.029729,758.810000,1196.640000Z" fill="rgb(255,199,53)" fill-rule="evenodd" stroke="none" stroke-width="1"/><path id="el7bma1upmn67" d="M3.430000,49.100000C3.429999,37.710270,12.660271,28.475521,24.050000,28.470000L118.910000,28.470000C130.303634,28.470000,139.540000,37.706366,139.540000,49.100000C139.540000,60.493634,130.303634,69.730000,118.910000,69.730000L24.050000,69.730000C12.660271,69.724479,3.429999,60.489730,3.430000,49.100000Z" fill="rgb(251,99,64)" fill-rule="evenodd" stroke="none" stroke-width="1"/><path id="el7bma1upmn68" d="M948.540000,1217.270000C940.195035,1217.274045,932.669520,1212.250272,929.473237,1204.541691C926.276954,1196.833109,928.039500,1187.958139,933.938851,1182.055926C939.838202,1176.153714,948.712317,1174.386865,956.422448,1177.579410C964.132578,1180.771956,969.159999,1188.295034,969.160000,1196.640000C969.160001,1208.029730,959.929729,1217.264479,948.540000,1217.270000Z" fill="rgb(251,99,64)" fill-rule="evenodd" stroke="none" stroke-width="1"/><path id="el7bma1upmn69" d="M1366.140000,693.750000C1358.082787,701.804576,1345.021821,701.803151,1336.966366,693.746817C1328.910911,685.690483,1328.910911,672.629517,1336.966366,664.573183C1345.021821,656.516849,1358.082787,656.515424,1366.140000,664.570000C1370.012789,668.437767,1372.188922,673.686599,1372.188922,679.160000C1372.188922,684.633401,1370.012789,689.882233,1366.140000,693.750000Z" fill="rgb(94,114,228)" fill-rule="evenodd" stroke="none" stroke-width="1"/><path id="el7bma1upmn70" d="M1424.470000,693.750000C1416.412787,701.804576,1403.351821,701.803151,1395.296366,693.746817C1387.240911,685.690483,1387.240911,672.629517,1395.296366,664.573183C1403.351821,656.516849,1416.412787,656.515424,1424.470000,664.570000C1428.342789,668.437767,1430.518922,673.686599,1430.518922,679.160000C1430.518922,684.633401,1428.342789,689.882233,1424.470000,693.750000Z" fill="rgb(94,114,228)" fill-rule="evenodd" stroke="none" stroke-width="1"/><path id="el7bma1upmn71" d="M1562.470000,771.170000C1463.590000,771.170000,1383.470000,851.350000,1383.470000,950.250000C1383.469999,961.660202,1374.220202,970.909999,1362.810000,970.909999C1351.399798,970.909999,1342.150001,961.660202,1342.150000,950.250000C1342.150000,828.520000,1440.790000,729.850000,1562.490000,729.850000C1573.900203,729.850000,1583.150000,739.099797,1583.150000,750.510000C1583.150000,761.920203,1573.900203,771.170000,1562.490000,771.170000Z" fill="rgb(255,199,53)" fill-rule="evenodd" stroke="none" stroke-width="1"/><path id="el7bma1upmn72" d="M1145.330000,256.460000C1145.385094,267.847915,1136.198074,277.124331,1124.810159,277.179514C1113.422245,277.234697,1104.145756,268.047750,1104.090484,256.659836C1104.035212,245.271922,1113.222086,235.995361,1124.610000,235.940000C1130.079584,235.910755,1135.336473,238.056897,1139.222819,241.905730C1143.109165,245.754564,1145.306193,250.990390,1145.330000,256.460000Z" fill="rgb(251,99,64)" fill-rule="evenodd" stroke="none" stroke-width="1"/><path id="el7bma1upmn73" d="M1333.880000,47.230000C1333.929565,58.616645,1324.740068,67.888059,1313.353432,67.939546C1301.966795,67.991033,1292.693830,58.803100,1292.640422,47.416472C1292.587014,36.029845,1301.773382,26.755330,1313.160000,26.700000C1318.630508,26.673418,1323.887369,28.821791,1327.773424,32.672211C1331.659480,36.522632,1333.856187,41.759479,1333.880000,47.230000Z" fill="rgb(251,99,64)" fill-rule="evenodd" stroke="none" stroke-width="1"/><path id="el7bma1upmn74" d="M1145.330000,49C1145.379565,60.386645,1136.190068,69.658059,1124.803432,69.709546C1113.416795,69.761033,1104.143830,60.573100,1104.090422,49.186472C1104.037014,37.799845,1113.223382,28.525330,1124.610000,28.470000C1130.080508,28.443418,1135.337369,30.591791,1139.223424,34.442211C1143.109480,38.292632,1145.306187,43.529479,1145.330000,49Z" fill="rgb(251,99,64)" fill-rule="evenodd" stroke="none" stroke-width="1"/><path id="el7bma1upmn75" d="M1145.330000,103.810000C1145.385094,115.197915,1136.198074,124.474331,1124.810159,124.529514C1113.422245,124.584697,1104.145756,115.397750,1104.090484,104.009836C1104.035212,92.621922,1113.222086,83.345361,1124.610000,83.290000C1130.078783,83.263414,1135.334134,85.410416,1139.219902,89.258676C1143.105670,93.106936,1145.303543,98.341216,1145.330000,103.810000Z" fill="rgb(251,99,64)" fill-rule="evenodd" stroke="none" stroke-width="1"/></g><path id="el7bma1upmn76" d="M1551.880000,699.790000L1470,699.790000C1462.629611,699.790000,1455.819090,695.857944,1452.133896,689.475000C1448.448701,683.092056,1448.448701,675.227944,1452.133896,668.845000C1455.819090,662.462056,1462.629611,658.530000,1470,658.530000L1551.870000,658.530000C1559.240389,658.530000,1566.050910,662.462056,1569.736104,668.845000C1573.421299,675.227944,1573.421299,683.092056,1569.736104,689.475000C1566.050910,695.857944,1559.240389,699.790000,1551.870000,699.790000Z" fill="rgb(233,236,239)" stroke="none" stroke-width="1"/><g id="el7bma1upmn77_to" transform="translate(0,0)"><path id="el7bma1upmn77" d="M1583.120000,750.480000C1583.114478,761.866808,1573.880145,771.093680,1562.493337,771.089999C1551.106528,771.086318,1541.878163,761.853478,1541.880003,750.466668C1541.881843,739.079859,1551.113191,729.850001,1562.500000,729.850000C1567.970497,729.849999,1573.216791,732.023830,1577.084079,735.892993C1580.951366,739.762156,1583.122653,745.009504,1583.120000,750.480000Z" transform="translate(0,0)" fill="rgb(251,99,64)" fill-rule="evenodd" stroke="none" stroke-width="1"/></g><path id="el7bma1upmn78" d="M1347.380000,201.460000C1347.379991,187.534772,1338.989492,174.981467,1326.122708,169.656258C1313.255924,164.331048,1298.448135,167.283216,1288.607238,177.135562C1278.766341,186.987909,1275.831394,201.799121,1281.171561,214.659704C1286.511729,227.520287,1299.074781,235.896183,1313,235.880000C1324.230376,236.127120,1333.205495,245.301905,1333.205495,256.535000C1333.205495,267.768095,1324.230376,276.942880,1313,277.190000C1282.362392,277.202135,1254.735001,258.755290,1243.003021,230.452927C1231.271041,202.150563,1237.745460,169.567734,1259.406661,147.900812C1281.067861,126.233889,1313.648978,119.750864,1341.954440,131.475369C1370.259901,143.199873,1388.714043,170.822390,1388.710000,201.460000C1388.709999,212.864680,1379.464680,222.109999,1368.060000,222.109999C1356.655320,222.109999,1347.410001,212.864680,1347.410000,201.460000Z" fill="rgb(94,114,228)" fill-rule="evenodd" stroke="none" stroke-width="1"/><path id="el7bma1upmn79" d="M1453.540000,59.170000C1434.524836,59.170000,1419.110000,74.584836,1419.110000,93.600000C1419.110000,112.615164,1434.524836,128.030000,1453.540000,128.030000C1464.770376,128.277120,1473.745495,137.451905,1473.745495,148.685000C1473.745495,159.918095,1464.770376,169.092880,1453.540000,169.340000C1411.709953,169.340000,1377.800000,135.430047,1377.800000,93.600000C1377.800000,51.769953,1411.709953,17.860000,1453.540000,17.860000C1464.770376,18.107120,1473.745495,27.281905,1473.745495,38.515000C1473.745495,49.748095,1464.770376,58.922880,1453.540000,59.170000Z" fill="rgb(233,236,239)" stroke="none" stroke-width="1"/><path id="el7bma1upmn80" d="M1335.060000,256.570000C1335.054478,267.956808,1325.820145,277.183680,1314.433337,277.179999C1303.046528,277.176318,1293.818163,267.943478,1293.820003,256.556668C1293.821843,245.169859,1303.053191,235.940001,1314.440000,235.940000C1319.910497,235.939999,1325.156791,238.113830,1329.024079,241.982993C1332.891366,245.852156,1335.062653,251.099504,1335.060000,256.570000Z" fill="rgb(251,99,64)" fill-rule="evenodd" stroke="none" stroke-width="1"/><path id="el7bma1upmn81" d="M1475.300000,148.710000C1475.300000,160.103634,1466.063634,169.340000,1454.670000,169.340000C1443.276366,169.340000,1434.040000,160.103634,1434.040000,148.710000C1434.040000,137.316366,1443.276366,128.080000,1454.670000,128.080000C1460.141416,128.080000,1465.388737,130.253512,1469.257613,134.122387C1473.126488,137.991263,1475.300000,143.238584,1475.300000,148.710000Z" fill="rgb(94,114,228)" fill-rule="evenodd" stroke="none" stroke-width="1"/><path id="el7bma1upmn82" d="M1390.450000,256.570000C1390.449999,264.914966,1385.422578,272.438044,1377.712448,275.630590C1370.002317,278.823135,1361.128202,277.056286,1355.228851,271.154074C1349.329500,265.251861,1347.566954,256.376891,1350.763237,248.668309C1353.959520,240.959728,1361.485035,235.935955,1369.830000,235.940000C1375.300497,235.939999,1380.546791,238.113830,1384.414079,241.982993C1388.281366,245.852156,1390.452653,251.099504,1390.450000,256.570000Z" fill="rgb(94,114,228)" fill-rule="evenodd" stroke="none" stroke-width="1"/><path id="el7bma1upmn83" d="M1445.250000,256.570000C1445.250000,267.963634,1436.013634,277.200000,1424.620000,277.200000C1413.226366,277.200000,1403.990000,267.963634,1403.990000,256.570000C1403.990000,245.176366,1413.226366,235.940000,1424.620000,235.940000C1430.091416,235.940000,1435.338737,238.113512,1439.207613,241.982387C1443.076488,245.851263,1445.250000,251.098584,1445.250000,256.570000Z" fill="rgb(94,114,228)" fill-rule="evenodd" stroke="none" stroke-width="1"/><path id="el7bma1upmn84" d="M1477.070000,92.720000C1477.070000,104.113634,1467.833634,113.350000,1456.440000,113.350000C1445.046366,113.350000,1435.810000,104.113634,1435.810000,92.720000C1435.810000,81.326366,1445.046366,72.090000,1456.440000,72.090000C1461.911416,72.090000,1467.158737,74.263512,1471.027613,78.132387C1474.896488,82.001263,1477.070000,87.248584,1477.070000,92.720000Z" fill="rgb(251,99,64)" fill-rule="evenodd" stroke="none" stroke-width="1"/><path id="el7bma1upmn85" d="M1531.860000,92.720000C1531.854478,104.106808,1522.620145,113.333680,1511.233337,113.329999C1499.846528,113.326318,1490.618163,104.093478,1490.620003,92.706668C1490.621843,81.319859,1499.853191,72.090001,1511.240000,72.090000C1516.710497,72.089999,1521.956791,74.263830,1525.824079,78.132993C1529.691366,82.002156,1531.862653,87.249504,1531.860000,92.720000Z" fill="rgb(251,99,64)" fill-rule="evenodd" stroke="none" stroke-width="1"/><path id="el7bma1upmn86" d="M1587.250000,92.720000C1587.249999,101.064966,1582.222578,108.588044,1574.512448,111.780590C1566.802317,114.973135,1557.928202,113.206286,1552.028851,107.304074C1546.129500,101.401861,1544.366954,92.526891,1547.563237,84.818309C1550.759520,77.109728,1558.285035,72.085955,1566.630000,72.090000C1572.100497,72.089999,1577.346791,74.263830,1581.214079,78.132993C1585.081366,82.002156,1587.252653,87.249504,1587.250000,92.720000Z" fill="rgb(251,99,64)" fill-rule="evenodd" stroke="none" stroke-width="1"/><path id="el7bma1upmn87" d="M1511.830000,460.500000C1503.485035,460.504045,1495.959520,455.480272,1492.763237,447.771691C1489.566954,440.063109,1491.329500,431.188139,1497.228851,425.285926C1503.128202,419.383714,1512.002317,417.616865,1519.712448,420.809410C1527.422578,424.001956,1532.449999,431.525034,1532.450000,439.870000C1532.450001,451.259730,1523.219729,460.494479,1511.830000,460.500000Z" fill="rgb(94,114,228)" fill-rule="evenodd" stroke="none" stroke-width="1"/></g></svg>